<?xml version="1.0" encoding="UTF-8"?>
<svg version="1.1" xmlns="http://www.w3.org/2000/svg" width="673" height="222">
<path d="M0 0 C1.69271027 -0.01913956 1.69271027 -0.01913956 3.4196167 -0.03866577 C5.22912811 -0.04200424 5.22912811 -0.04200424 7.07519531 -0.04541016 C8.3303595 -0.05206696 9.58552368 -0.05872375 10.87872314 -0.06558228 C13.53159799 -0.07569486 16.18406285 -0.08126669 18.83691406 -0.08007812 C22.2103242 -0.07987548 25.58288673 -0.10713402 28.95609665 -0.14162254 C32.20409622 -0.16942441 35.45209309 -0.1680458 38.70019531 -0.17041016 C39.89843933 -0.18478119 41.09668335 -0.19915222 42.33123779 -0.21395874 C50.226777 -0.17138223 57.98684341 0.53107481 64.09295654 6.04067993 C68.70323292 11.02614426 70.39600298 15.71164312 70.44384766 22.5144043 C70.45660736 23.74951248 70.46936707 24.98462067 70.48251343 26.25715637 C70.48557164 27.59770551 70.4877991 28.93825676 70.48925781 30.27880859 C70.49569171 31.66497432 70.5024205 33.0511387 70.50942993 34.43730164 C70.52138474 37.33982488 70.5251127 40.24222928 70.52392578 43.14477539 C70.52372287 46.84683339 70.55100269 50.54812131 70.5854702 54.24999714 C70.60781448 57.11294487 70.61176102 59.97570961 70.61070633 62.83873558 C70.61305184 64.20257402 70.62181573 65.56641831 70.63737106 66.93017006 C70.7358342 76.45537125 70.31543747 83.03381662 63.40332031 90.10302734 C55.48003348 95.43600886 48.53834071 95.73703243 39.21972656 95.68896484 C37.98721664 95.69183502 36.75470673 95.6947052 35.48484802 95.69766235 C32.88694803 95.69969737 30.28903251 95.69420707 27.69116211 95.68164062 C23.73223305 95.66559387 19.77432702 95.68150265 15.81542969 95.70068359 C13.28352641 95.6987008 10.75162376 95.69485637 8.21972656 95.68896484 C6.45684044 95.69807388 6.45684044 95.69807388 4.65834045 95.70736694 C-2.88526156 95.64337025 -9.74869546 95.03409306 -16.15136719 90.74755859 C-16.92867188 89.93351562 -16.92867188 89.93351562 -17.72167969 89.10302734 C-18.25535156 88.57322266 -18.78902344 88.04341797 -19.33886719 87.49755859 C-24.4163867 80.06543806 -24.28829802 72.58890387 -24.24511719 63.88427734 C-24.24798737 62.60500366 -24.25085754 61.32572998 -24.2538147 60.00769043 C-24.25821504 57.31133035 -24.25188183 54.61527026 -24.23779297 51.91894531 C-24.2207019 48.48272567 -24.23055553 45.04720924 -24.24851036 41.61101532 C-24.26202873 38.30621471 -24.25253188 35.00159786 -24.24511719 31.69677734 C-24.25118988 30.47261108 -24.25726257 29.24844482 -24.26351929 27.98718262 C-24.19846966 20.04350727 -23.80803804 13.70747929 -18.40917969 7.47802734 C-17.56355469 6.75615234 -16.71792969 6.03427734 -15.84667969 5.29052734 C-15.20730469 4.73365234 -14.56792969 4.17677734 -13.90917969 3.60302734 C-9.52991634 0.81622339 -5.12005496 0.03955223 0 0 Z " fill="#60A5F9" transform="translate(121.8466796875,63.70947265625)"/>
<path d="M0 0 C1.32 0 2.64 0 4 0 C4 1.98 4 3.96 4 6 C7.3 6 10.6 6 14 6 C14 4.02 14 2.04 14 0 C15.65 0 17.3 0 19 0 C19 1.98 19 3.96 19 6 C19.68707031 5.96519531 20.37414062 5.93039063 21.08203125 5.89453125 C21.98308594 5.86746094 22.88414062 5.84039062 23.8125 5.8125 C25.15248047 5.76029297 25.15248047 5.76029297 26.51953125 5.70703125 C29 6 29 6 30.8125 7.1875 C32.41326658 9.63077531 32.30028797 11.29260872 32.1875 14.1875 C32.14689453 15.53908203 32.14689453 15.53908203 32.10546875 16.91796875 C32.07066406 17.60503906 32.03585938 18.29210937 32 19 C33.98 19 35.96 19 38 19 C38 20.32 38 21.64 38 23 C36.02 23 34.04 23 32 23 C32 26.3 32 29.6 32 33 C33.98 33 35.96 33 38 33 C38 34.65 38 36.3 38 38 C36.02 38 34.04 38 32 38 C32.05220703 39.03060547 32.05220703 39.03060547 32.10546875 40.08203125 C32.13253906 40.98308594 32.15960938 41.88414063 32.1875 42.8125 C32.23970703 44.15248047 32.23970703 44.15248047 32.29296875 45.51953125 C32 48 32 48 30.8125 49.8125 C28.36922469 51.41326658 26.70739128 51.30028797 23.8125 51.1875 C22.91144531 51.16042969 22.01039063 51.13335937 21.08203125 51.10546875 C20.39496094 51.07066406 19.70789063 51.03585938 19 51 C19 52.98 19 54.96 19 57 C17.35 57 15.7 57 14 57 C14 55.02 14 53.04 14 51 C11.03 51 8.06 51 5 51 C5 52.98 5 54.96 5 57 C3.35 57 1.7 57 0 57 C0 55.02 0 53.04 0 51 C-1.03060547 51.05220703 -1.03060547 51.05220703 -2.08203125 51.10546875 C-2.98308594 51.13253906 -3.88414062 51.15960938 -4.8125 51.1875 C-6.15248047 51.23970703 -6.15248047 51.23970703 -7.51953125 51.29296875 C-10 51 -10 51 -11.8125 49.8125 C-13.41326658 47.36922469 -13.30028797 45.70739128 -13.1875 42.8125 C-13.14689453 41.46091797 -13.14689453 41.46091797 -13.10546875 40.08203125 C-13.07066406 39.39496094 -13.03585938 38.70789063 -13 38 C-15.31 38 -17.62 38 -20 38 C-20 36.35 -20 34.7 -20 33 C-17.69 33 -15.38 33 -13 33 C-13 29.7 -13 26.4 -13 23 C-14.98 23 -16.96 23 -19 23 C-19 21.68 -19 20.36 -19 19 C-17.02 19 -15.04 19 -13 19 C-13.02320312 18.22914062 -13.04640625 17.45828125 -13.0703125 16.6640625 C-13.08835937 15.66117188 -13.10640625 14.65828125 -13.125 13.625 C-13.14820312 12.62726563 -13.17140625 11.62953125 -13.1953125 10.6015625 C-13 8 -13 8 -11 6 C-8.3984375 5.8046875 -8.3984375 5.8046875 -5.375 5.875 C-3.87066406 5.90207031 -3.87066406 5.90207031 -2.3359375 5.9296875 C-1.56507813 5.95289062 -0.79421875 5.97609375 0 6 C0 4.02 0 2.04 0 0 Z " fill="#62A6FA" transform="translate(136,83)"/>
<path d="M0 0 C1.32 0 2.64 0 4 0 C4 1.98 4 3.96 4 6 C7.3 6 10.6 6 14 6 C14 4.02 14 2.04 14 0 C15.65 0 17.3 0 19 0 C19 1.98 19 3.96 19 6 C19.68707031 5.96519531 20.37414062 5.93039063 21.08203125 5.89453125 C21.98308594 5.86746094 22.88414062 5.84039062 23.8125 5.8125 C25.15248047 5.76029297 25.15248047 5.76029297 26.51953125 5.70703125 C29 6 29 6 30.8125 7.1875 C32.41326658 9.63077531 32.30028797 11.29260872 32.1875 14.1875 C32.14689453 15.53908203 32.14689453 15.53908203 32.10546875 16.91796875 C32.07066406 17.60503906 32.03585938 18.29210937 32 19 C33.98 19 35.96 19 38 19 C38 20.32 38 21.64 38 23 C36.02 23 34.04 23 32 23 C32 26.3 32 29.6 32 33 C33.98 33 35.96 33 38 33 C38 34.65 38 36.3 38 38 C36.02 38 34.04 38 32 38 C32.05220703 39.03060547 32.05220703 39.03060547 32.10546875 40.08203125 C32.13253906 40.98308594 32.15960938 41.88414063 32.1875 42.8125 C32.23970703 44.15248047 32.23970703 44.15248047 32.29296875 45.51953125 C32 48 32 48 30.8125 49.8125 C28.36922469 51.41326658 26.70739128 51.30028797 23.8125 51.1875 C22.91144531 51.16042969 22.01039063 51.13335937 21.08203125 51.10546875 C20.39496094 51.07066406 19.70789063 51.03585938 19 51 C19 52.98 19 54.96 19 57 C17.35 57 15.7 57 14 57 C14 55.02 14 53.04 14 51 C11.03 51 8.06 51 5 51 C5 52.98 5 54.96 5 57 C3.35 57 1.7 57 0 57 C0 55.02 0 53.04 0 51 C-1.03060547 51.05220703 -1.03060547 51.05220703 -2.08203125 51.10546875 C-2.98308594 51.13253906 -3.88414062 51.15960938 -4.8125 51.1875 C-6.15248047 51.23970703 -6.15248047 51.23970703 -7.51953125 51.29296875 C-10 51 -10 51 -11.8125 49.8125 C-13.41326658 47.36922469 -13.30028797 45.70739128 -13.1875 42.8125 C-13.14689453 41.46091797 -13.14689453 41.46091797 -13.10546875 40.08203125 C-13.07066406 39.39496094 -13.03585938 38.70789063 -13 38 C-15.31 38 -17.62 38 -20 38 C-20 36.35 -20 34.7 -20 33 C-17.69 33 -15.38 33 -13 33 C-13 29.7 -13 26.4 -13 23 C-14.98 23 -16.96 23 -19 23 C-19 21.68 -19 20.36 -19 19 C-17.02 19 -15.04 19 -13 19 C-13.02320312 18.22914062 -13.04640625 17.45828125 -13.0703125 16.6640625 C-13.08835937 15.66117188 -13.10640625 14.65828125 -13.125 13.625 C-13.14820312 12.62726563 -13.17140625 11.62953125 -13.1953125 10.6015625 C-13 8 -13 8 -11 6 C-8.3984375 5.8046875 -8.3984375 5.8046875 -5.375 5.875 C-3.87066406 5.90207031 -3.87066406 5.90207031 -2.3359375 5.9296875 C-1.56507813 5.95289062 -0.79421875 5.97609375 0 6 C0 4.02 0 2.04 0 0 Z M-8 11 C-8 22.55 -8 34.1 -8 46 C3.55 46 15.1 46 27 46 C27 34.45 27 22.9 27 11 C15.45 11 3.9 11 -8 11 Z " fill="#F6FAFE" transform="translate(136,83)"/>
<path d="M0 0 C3.63 0 7.26 0 11 0 C14.15389365 7.54681695 16.68855099 15.15582728 19 23 C22.19198847 15.47845271 24.69138424 7.83455774 27 0 C30.63 0 34.26 0 38 0 C38 12.21 38 24.42 38 37 C35.69 37 33.38 37 31 37 C30.67 29.74 30.34 22.48 30 15 C27.7380475 21.86500943 27.7380475 21.86500943 25.48266602 28.73217773 C25.20092529 29.58239502 24.91918457 30.4326123 24.62890625 31.30859375 C24.1968689 32.62041626 24.1968689 32.62041626 23.75610352 33.95874023 C23 36 23 36 22 37 C20.02 37 18.04 37 16 37 C13.69 30.07 11.38 23.14 9 16 C8.67 22.93 8.34 29.86 8 37 C5.69 37 3.38 37 1 37 C0 36 0 36 -0.11352539 32.58178711 C-0.11336628 31.06363012 -0.10767226 29.54546771 -0.09765625 28.02734375 C-0.0962413 27.22970108 -0.09482635 26.43205841 -0.09336853 25.61024475 C-0.08775316 23.05262565 -0.07519812 20.49509282 -0.0625 17.9375 C-0.05748698 16.20768355 -0.05292373 14.47786574 -0.04882812 12.74804688 C-0.03777875 8.49866447 -0.02050386 4.24934688 0 0 Z M7 9 C8 11 8 11 8 11 Z " fill="#F8F7F7" transform="translate(209,97)"/>
<path d="M0 0 C5.754375 -0.0928125 5.754375 -0.0928125 11.625 -0.1875 C13.42251709 -0.22846802 13.42251709 -0.22846802 15.25634766 -0.27026367 C20.89146558 -0.31426585 25.18821128 -0.31623276 30 3 C32.42211953 5.97260124 32.35912126 9.27156701 32.25390625 13.03125 C31.87594724 15.96188605 30.89892022 17.76198688 29 20 C26.890625 20.62890625 26.890625 20.62890625 25 21 C25.48210937 21.81984375 25.96421875 22.6396875 26.4609375 23.484375 C27.40839844 25.10085937 27.40839844 25.10085937 28.375 26.75 C29.00148438 27.81734375 29.62796875 28.8846875 30.2734375 29.984375 C31.59772663 32.29738678 32.84636846 34.59951417 34 37 C30.43106784 37.7755426 27.53135502 38.03531744 24 37 C20.8131492 33.26987236 17 28.08765705 17 23 C14.03 23 11.06 23 8 23 C8 27.62 8 32.24 8 37 C5.36 37 2.72 37 0 37 C0 24.79 0 12.58 0 0 Z M8 6 C8 9.63 8 13.26 8 17 C10.29239061 16.91321237 12.5839807 16.80504727 14.875 16.6875 C16.15117187 16.62949219 17.42734375 16.57148437 18.7421875 16.51171875 C19.81726563 16.34285156 20.89234375 16.17398438 22 16 C24.28138945 13.24301816 24.28138945 13.24301816 23.8125 10.4375 C23.16627558 7.66744883 23.16627558 7.66744883 20 6 C17.02550392 5.75780685 17.02550392 5.75780685 13.8125 5.875 C12.72582031 5.89304687 11.63914062 5.91109375 10.51953125 5.9296875 C9.68808594 5.95289062 8.85664063 5.97609375 8 6 Z " fill="#5EA6F9" transform="translate(352,97)"/>
<path d="M0 0 C2.64 0 5.28 0 8 0 C7.98839844 0.86882812 7.97679687 1.73765625 7.96484375 2.6328125 C7.95582031 3.78523438 7.94679688 4.93765625 7.9375 6.125 C7.92589844 7.26195313 7.91429687 8.39890625 7.90234375 9.5703125 C7.994673 12.8129156 8.38610094 15.81932612 9 19 C9.72703125 18.02546875 9.72703125 18.02546875 10.46875 17.03125 C15.87852238 10.28984135 15.87852238 10.28984135 19.3125 9.40234375 C21.5 9.4375 21.5 9.4375 25 10 C23.63629701 12.99220268 22.05091917 15.29026529 19.875 17.75 C19.33617187 18.36359375 18.79734375 18.9771875 18.2421875 19.609375 C17.83226562 20.06828125 17.42234375 20.5271875 17 21 C18.81295208 26.02682168 21.60057286 30.14249661 24.5390625 34.57421875 C26 37 26 37 26 39 C22.74890324 39.79618696 20.21236693 40.03690325 17 39 C14.02069213 35.30824895 11.98705646 31.29357537 10 27 C8.26043342 28.73956658 8.62809614 31.1936622 8.4375 33.5625 C8.35371094 34.57441406 8.26992188 35.58632812 8.18359375 36.62890625 C8.12300781 37.41136719 8.06242187 38.19382813 8 39 C5.36 39 2.72 39 0 39 C0 26.13 0 13.26 0 0 Z " fill="#F8F8F8" transform="translate(269,95)"/>
<path d="M0 0 C3.51211963 3.29261215 3.95833427 7.05001862 4.1953125 11.7421875 C4.18221369 13.07826637 4.15865184 14.41428077 4.125 15.75 C4.11597656 16.43835938 4.10695313 17.12671875 4.09765625 17.8359375 C4.07432513 19.51577838 4.03846326 21.19543746 4 22.875 C5.32 23.205 6.64 23.535 8 23.875 C7.67 25.195 7.34 26.515 7 27.875 C5.741875 27.91625 4.48375 27.9575 3.1875 28 C2.47980469 28.02320313 1.77210938 28.04640625 1.04296875 28.0703125 C-1 27.875 -1 27.875 -4 25.875 C-4.99 26.535 -5.98 27.195 -7 27.875 C-11.51894448 28.5237967 -15.61441538 28.66676264 -19.625 26.375 C-21.56641363 22.84515704 -21.83721493 19.74615895 -21 15.875 C-19.25 12.9375 -19.25 12.9375 -16 10.875 C-11.99971181 10.17794068 -8.05618384 9.94616112 -4 9.875 C-4.66 8.225 -5.32 6.575 -6 4.875 C-8.47266765 5.21944881 -8.47266765 5.21944881 -11 5.875 C-11.33 6.535 -11.66 7.195 -12 7.875 C-14.64 7.875 -17.28 7.875 -20 7.875 C-19.5047783 4.21035945 -18.9791794 2.16667646 -16 -0.125 C-10.75586758 -1.87304414 -5.18883314 -1.94581243 0 0 Z M-13 16.875 C-13.25030977 19.45880177 -13.25030977 19.45880177 -13 21.875 C-10.65466049 22.64456136 -10.65466049 22.64456136 -8 22.875 C-5.48017068 21.25510972 -5.05657891 20.09617209 -4.3125 17.1875 C-4.209375 16.424375 -4.10625 15.66125 -4 14.875 C-8.7897321 14.64071687 -8.7897321 14.64071687 -13 16.875 Z " fill="#5EA6F9" transform="translate(534,106.125)"/>
<path d="M0 0 C3.00197464 1.80118478 4.45166366 2.90332732 6 6 C6.23274209 8.87910588 6.41972757 11.74146495 6.5625 14.625 C6.60568359 15.42679688 6.64886719 16.22859375 6.69335938 17.0546875 C6.79951457 19.0362511 6.90026855 21.01810271 7 23 C7.99 23.33 8.98 23.66 10 24 C10 25.65 10 27.3 10 29 C8.54257537 29.08096803 7.08387193 29.13917774 5.625 29.1875 C4.81289063 29.22230469 4.00078125 29.25710937 3.1640625 29.29296875 C2.44992187 29.19628906 1.73578125 29.09960938 1 29 C0.34 28.01 -0.32 27.02 -1 26 C-1.55558594 26.48726562 -2.11117188 26.97453125 -2.68359375 27.4765625 C-5.39172924 29.25762968 -6.85437654 29.40403279 -10.0625 29.375 C-10.91972656 29.38273437 -11.77695312 29.39046875 -12.66015625 29.3984375 C-15.47777413 28.9186428 -16.33244228 28.29289187 -18 26 C-19.64732143 19.19107143 -19.64732143 19.19107143 -17.4375 15.125 C-12.68502758 10.98181892 -8.13715907 10.75451364 -2 11 C-2.66 9.35 -3.32 7.7 -4 6 C-5.32 6 -6.64 6 -8 6 C-8.33 6.99 -8.66 7.98 -9 9 C-11.64 9 -14.28 9 -17 9 C-16.73309994 5.79719931 -16.16670984 4.2056088 -14.125 1.6875 C-9.48434601 -0.81845316 -5.16496122 -0.7910301 0 0 Z M-9.9375 17.25 C-11.23938689 18.97701922 -11.23938689 18.97701922 -10.6875 21.1875 C-10.460625 21.785625 -10.23375 22.38375 -10 23 C-8.21858253 23.86358623 -8.21858253 23.86358623 -6 24 C-3.64619349 22.39628155 -3.64619349 22.39628155 -2 20 C-2 18.68 -2 17.36 -2 16 C-6.18966713 15.65314472 -6.18966713 15.65314472 -9.9375 17.25 Z " fill="#5EA6F9" transform="translate(407,105)"/>
<path d="M0 0 C3.18115812 1.18609146 5.2549256 2.8461695 7.125 5.7421875 C9.40566794 11.62712532 8.84602587 18.86654346 6.5625 24.625 C3.02208351 27.90636162 -0.22423203 29.32757187 -5 30 C-9.99943386 29.80553256 -13.14364176 28.71363187 -17 25.5 C-21.06046847 20.42441441 -20.4529544 15.30018391 -20 9 C-18.75653782 5.26961346 -17.91613183 3.66395617 -14.7578125 1.375 C-10.00365224 -0.99534619 -5.1868522 -0.63870575 0 0 Z M-9.6875 6.875 C-12.52999267 10.71620631 -12.67589469 13.00913672 -12.41796875 17.6796875 C-12.11052167 20.17888619 -12.11052167 20.17888619 -10.375 22.6875 C-7.99621956 24.26101354 -7.99621956 24.26101354 -4.875 23.9375 C-1.70825068 23.23305313 -1.70825068 23.23305313 0 20 C0.64723202 15.07050031 1.02042496 10.5130439 -1.8125 6.3125 C-5.20750786 4.27549529 -6.47277887 4.63217131 -9.6875 6.875 Z " fill="#F8F7F7" transform="translate(338,105)"/>
<path d="M0 0 C1.010625 0.0825 2.02125 0.165 3.0625 0.25 C3.7225 1.24 4.3825 2.23 5.0625 3.25 C5.66771484 2.52103516 5.66771484 2.52103516 6.28515625 1.77734375 C9.03161556 -0.58280041 11.40973048 -0.22118312 14.90234375 -0.11328125 C17.0625 0.25 17.0625 0.25 19.5625 2.125 C21.94831653 5.50490675 22.1827332 7.36755823 22.16015625 11.4765625 C22.15693359 12.5078125 22.15371094 13.5390625 22.15039062 14.6015625 C22.14201172 15.68179688 22.13363281 16.76203125 22.125 17.875 C22.12048828 18.96296875 22.11597656 20.0509375 22.11132812 21.171875 C22.09951776 23.86463789 22.08304778 26.55729188 22.0625 29.25 C19.7525 29.25 17.4425 29.25 15.0625 29.25 C15.01351563 28.08082031 14.96453125 26.91164062 14.9140625 25.70703125 C14.83899829 24.15883196 14.76345205 22.61065599 14.6875 21.0625 C14.6565625 20.29357422 14.625625 19.52464844 14.59375 18.73242188 C14.37633889 14.51102289 13.96506928 11.10927672 12.0625 7.25 C9.09184491 7.59227572 9.09184491 7.59227572 6.0625 8.25 C4.91595518 10.54308963 4.86520883 12.04909656 4.74609375 14.6015625 C4.70419922 15.45234375 4.66230469 16.303125 4.61914062 17.1796875 C4.57982422 18.06914063 4.54050781 18.95859375 4.5 19.875 C4.45681641 20.7721875 4.41363281 21.669375 4.36914062 22.59375 C4.26293139 24.81234283 4.16088806 27.0310488 4.0625 29.25 C1.4225 29.25 -1.2175 29.25 -3.9375 29.25 C-3.96215881 25.28069011 -3.98034023 21.31140966 -3.99243164 17.34204102 C-3.99747057 15.99079614 -4.00430177 14.63955674 -4.01293945 13.28833008 C-4.02502419 11.34979566 -4.03019828 9.411222 -4.03515625 7.47265625 C-4.04039307 6.30484619 -4.04562988 5.13703613 -4.05102539 3.93383789 C-3.89214116 0.17767791 -3.77553683 0.32132228 0 0 Z " fill="#5FA5F8" transform="translate(485.9375,104.75)"/>
<path d="M0 0 C1.134375 0.020625 2.26875 0.04125 3.4375 0.0625 C3.46255615 0.65788574 3.4876123 1.25327148 3.51342773 1.86669922 C3.62927494 4.55719136 3.75205196 7.2473234 3.875 9.9375 C3.91431641 10.87464844 3.95363281 11.81179687 3.99414062 12.77734375 C4.05698242 14.12119141 4.05698242 14.12119141 4.12109375 15.4921875 C4.15775146 16.31960449 4.19440918 17.14702148 4.23217773 17.99951172 C4.31988327 20.12429429 4.31988327 20.12429429 5.4375 22.0625 C7.4175 22.0625 9.3975 22.0625 11.4375 22.0625 C13.68919623 17.49503488 13.86173979 13.23972773 14.0625 8.25 C14.10117187 7.46173828 14.13984375 6.67347656 14.1796875 5.86132812 C14.27338844 3.9287462 14.35650779 1.99565624 14.4375 0.0625 C16.7475 0.0625 19.0575 0.0625 21.4375 0.0625 C21.4375 9.6325 21.4375 19.2025 21.4375 29.0625 C19.1275 29.0625 16.8175 29.0625 14.4375 29.0625 C14.1075 28.0725 13.7775 27.0825 13.4375 26.0625 C13.04433594 26.54847656 12.65117187 27.03445312 12.24609375 27.53515625 C9.32210629 30.00444156 6.50634646 29.52933955 2.8203125 29.421875 C0.4375 29.0625 0.4375 29.0625 -2.125 27.25 C-4.35459 23.85714565 -4.69010337 21.17211208 -4.6953125 17.2109375 C-4.69724609 15.81101562 -4.69724609 15.81101562 -4.69921875 14.3828125 C-4.69341797 12.92488281 -4.69341797 12.92488281 -4.6875 11.4375 C-4.69136719 10.4578125 -4.69523437 9.478125 -4.69921875 8.46875 C-4.69792969 7.53804688 -4.69664062 6.60734375 -4.6953125 5.6484375 C-4.69418457 4.7929834 -4.69305664 3.9375293 -4.69189453 3.05615234 C-4.46229473 -0.48141736 -3.68202188 0.06459688 0 0 Z " fill="#5FA5F8" transform="translate(453.5625,104.9375)"/>
<path d="M0 0 C3.5625 1.625 3.5625 1.625 6 4 C6.875 7.25 6.875 7.25 7 10 C0.6 10.49230769 0.6 10.49230769 -2.4375 8 C-2.953125 7.34 -3.46875 6.68 -4 6 C-5.65 6.66 -7.3 7.32 -9 8 C-9.93402724 13.41735797 -10.20808081 16.80451575 -8 22 C-4.52852158 22.74957157 -4.52852158 22.74957157 -1 23 C-0.67 21.68 -0.34 20.36 0 19 C2.64 19 5.28 19 8 19 C7.16953471 22.32186116 6.25591031 24.67584694 4.125 27.375 C-0.80549622 29.93885804 -5.56620783 29.83823046 -11 29 C-14.98166366 27.27943406 -16.6884556 24.70436125 -18.4375 20.75 C-19.34705351 14.68630991 -19.07055557 10.03036401 -16.1875 4.5625 C-11.69797516 -0.69665767 -6.57884741 -0.82883117 0 0 Z " fill="#5DA6F9" transform="translate(437,105)"/>
<path d="M0 0 C1.134375 0.020625 2.26875 0.04125 3.4375 0.0625 C3.7675 0.7225 4.0975 1.3825 4.4375 2.0625 C5.0975 1.4025 5.7575 0.7425 6.4375 0.0625 C9.5625 -0.0625 9.5625 -0.0625 12.4375 0.0625 C12.4375 2.3725 12.4375 4.6825 12.4375 7.0625 C11.48875 7.145 10.54 7.2275 9.5625 7.3125 C6.45756577 7.71194561 6.45756577 7.71194561 5.28125 9.5625 C4.03007626 13.26968145 3.96730001 16.92314981 3.8125 20.8125 C3.75449219 22.00166016 3.75449219 22.00166016 3.6953125 23.21484375 C3.601392 25.16369416 3.51837178 27.11306451 3.4375 29.0625 C1.1275 29.0625 -1.1825 29.0625 -3.5625 29.0625 C-3.72979064 25.09342526 -3.89038226 21.12414279 -4.04467773 17.15454102 C-4.09815802 15.80322921 -4.15349194 14.45198948 -4.21069336 13.10083008 C-4.29243571 11.16247011 -4.36703323 9.22381296 -4.44140625 7.28515625 C-4.4885376 6.11734619 -4.53566895 4.94953613 -4.58422852 3.74633789 C-4.5510632 -0.35013785 -4.22162068 0.07406352 0 0 Z " fill="#F8F8F8" transform="translate(302.5625,104.9375)"/>
<path d="M0 0 C1.134375 0.020625 2.26875 0.04125 3.4375 0.0625 C3.7675 0.7225 4.0975 1.3825 4.4375 2.0625 C5.0975 1.4025 5.7575 0.7425 6.4375 0.0625 C9.5625 -0.0625 9.5625 -0.0625 12.4375 0.0625 C12.4375 2.3725 12.4375 4.6825 12.4375 7.0625 C11.48875 7.165625 10.54 7.26875 9.5625 7.375 C6.14642499 7.74789295 6.14642499 7.74789295 4.4375 11.0625 C4.07398496 13.08792148 4.07398496 13.08792148 4.0234375 15.29296875 C3.96542969 16.49663086 3.96542969 16.49663086 3.90625 17.72460938 C3.85984375 18.97467773 3.85984375 18.97467773 3.8125 20.25 C3.75449219 21.5174707 3.75449219 21.5174707 3.6953125 22.81054688 C3.60113721 24.89417524 3.51823325 26.97830753 3.4375 29.0625 C1.1275 29.0625 -1.1825 29.0625 -3.5625 29.0625 C-4.91298039 26.36153923 -4.69213577 24.23523483 -4.6953125 21.21484375 C-4.69660156 20.05275391 -4.69789063 18.89066406 -4.69921875 17.69335938 C-4.69535156 16.47455078 -4.69148437 15.25574219 -4.6875 14 C-4.69136719 12.77732422 -4.69523438 11.55464844 -4.69921875 10.29492188 C-4.69792969 9.13412109 -4.69664062 7.97332031 -4.6953125 6.77734375 C-4.69418457 5.70605225 -4.69305664 4.63476074 -4.69189453 3.53100586 C-4.48661708 -0.38514568 -4.07759782 0.0715368 0 0 Z " fill="#5DA6F9" transform="translate(548.5625,104.9375)"/>
<path d="M0 0 C5.28 0 10.56 0 16 0 C16 5.28 16 10.56 16 16 C10.72 16 5.44 16 0 16 C0 10.72 0 5.44 0 0 Z " fill="#FAFCFE" transform="translate(137,104)"/>
<path d="M0 0 C2.31 0 4.62 0 7 0 C8 1 8 1 8.11352539 3.68383789 C8.10828857 4.85164795 8.10305176 6.01945801 8.09765625 7.22265625 C8.09443359 8.48271484 8.09121094 9.74277344 8.08789062 11.04101562 C8.07953403 12.38151109 8.07106907 13.72200588 8.0625 15.0625 C8.0574866 16.40689942 8.05292342 17.7513006 8.04882812 19.09570312 C8.03699488 22.39717941 8.02050971 25.69856803 8 29 C5.36 29 2.72 29 0 29 C0 19.43 0 9.86 0 0 Z " fill="#F8F6F6" transform="translate(254,105)"/>
<path d="M0 0 C2.31 0 4.62 0 7 0 C7 9.57 7 19.14 7 29 C4.36 29 1.72 29 -1 29 C-1.02465881 25.03069011 -1.04284023 21.06140966 -1.05493164 17.09204102 C-1.05997057 15.74079614 -1.06680177 14.38955674 -1.07543945 13.03833008 C-1.08752419 11.09979566 -1.09269828 9.161222 -1.09765625 7.22265625 C-1.10289307 6.05484619 -1.10812988 4.88703613 -1.11352539 3.68383789 C-1 1 -1 1 0 0 Z " fill="#62A2F4" transform="translate(566,105)"/>
<path d="M0 0 C2.31 0 4.62 0 7 0 C7 2.31 7 4.62 7 7 C4.69 7 2.38 7 0 7 C0 4.69 0 2.38 0 0 Z " fill="#6DACFA" transform="translate(142,108)"/>
<path d="M0 0 C2.64 0 5.28 0 8 0 C8 1.98 8 3.96 8 6 C5.36 6 2.72 6 0 6 C0 4.02 0 2.04 0 0 Z " fill="#F6F6F6" transform="translate(254,95)"/>
<path d="M0 0 C2.64 0 5.28 0 8 0 C8 1.98 8 3.96 8 6 C5.66705225 6.04241723 3.33297433 6.04092937 1 6 C0 5 0 5 -0.0625 2.4375 C-0.041875 1.633125 -0.02125 0.82875 0 0 Z " fill="#5CA7F8" transform="translate(565,95)"/>
</svg>
