<?xml version="1.0" encoding="UTF-8"?>
<svg version="1.1" xmlns="http://www.w3.org/2000/svg" width="512" height="512">
<path d="M0 0 C2.87029869 1.79393668 4.49131638 2.98263276 6 6 C6.09061856 7.72606453 6.11754501 9.45564507 6.11352539 11.18408203 C6.11344986 12.26505157 6.11337433 13.34602112 6.11329651 14.45974731 C6.10813522 15.63060883 6.10297394 16.80147034 6.09765625 18.0078125 C6.09553383 19.8014473 6.09553383 19.8014473 6.09336853 21.63131714 C6.08775663 25.46256987 6.07520208 29.29376484 6.0625 33.125 C6.05748653 35.71744707 6.05292336 38.30989506 6.04882812 40.90234375 C6.03863286 47.2682695 6.01905967 53.63406985 6 60 C15.57 60 25.14 60 35 60 C34.96519531 56.39964844 34.93039063 52.79929687 34.89453125 49.08984375 C34.87111539 45.5915608 34.8529103 42.09328667 34.83520508 38.5949707 C34.82014591 36.16914951 34.79969438 33.74335542 34.77368164 31.31762695 C34.73717297 27.82496438 34.72024447 24.33266275 34.70703125 20.83984375 C34.69154739 19.76041 34.67606354 18.68097626 34.66011047 17.5688324 C34.65878711 11.608654 34.98708787 7.20748613 38 2 C41.15094133 -0.10062755 42.2224366 -0.34313286 45.875 -0.4375 C46.71804687 -0.47746094 47.56109375 -0.51742188 48.4296875 -0.55859375 C51.27725502 0.06025451 52.93349037 1.01951829 54.94396973 3.13471985 C57.3645104 7.41015265 56.59269536 12.75631219 56.48828125 17.51953125 C56.47766914 19.34009285 56.47766914 19.34009285 56.46684265 21.19743347 C56.43887889 25.06975212 56.37613091 28.94061917 56.3125 32.8125 C56.28741996 35.43943223 56.26460629 38.06638714 56.24414062 40.69335938 C56.19329896 47.12991388 56.09543656 53.56333439 56 60 C65.9 60 75.8 60 86 60 C85.94199219 56.08769531 85.88398438 52.17539062 85.82421875 48.14453125 C85.78522427 44.35508247 85.75486449 40.56565605 85.7253418 36.77612305 C85.70019843 34.14255773 85.66607916 31.50906218 85.62280273 28.87573242 C85.5621479 25.09015691 85.5337873 21.30550402 85.51171875 17.51953125 C85.48591232 16.34227982 85.4601059 15.16502838 85.43351746 13.95210266 C85.43039304 4.84527068 85.43039304 4.84527068 88.37426758 1.7590332 C92.02169913 -0.68445767 94.34630338 -0.70879387 98.62109375 -0.4921875 C102.30100927 0.26917433 103.87845256 1.98877137 106 5 C107.02067666 8.07681797 107.12151571 10.9076541 107.11352539 14.13574219 C107.11344986 15.15649841 107.11337433 16.17725464 107.11329651 17.22894287 C107.10813522 18.32386047 107.10297394 19.41877808 107.09765625 20.546875 C107.09553383 22.23638275 107.09553383 22.23638275 107.09336853 23.96002197 C107.08777199 27.55670835 107.0752201 31.15333244 107.0625 34.75 C107.05748455 37.18880118 107.05292172 39.62760334 107.04882812 42.06640625 C107.03865469 48.04431413 107.01907844 54.02208735 107 60 C116.57 60 126.14 60 136 60 C135.95359375 56.15988281 135.9071875 52.31976563 135.859375 48.36328125 C135.82817844 44.64332399 135.80389106 40.92338132 135.78027344 37.20336914 C135.76016028 34.61834183 135.73286614 32.03336 135.69824219 29.44848633 C135.64971346 25.73247045 135.62702765 22.01705622 135.609375 18.30078125 C135.57840729 16.56771477 135.57840729 16.56771477 135.54681396 14.79963684 C135.54456892 6.76878873 135.54456892 6.76878873 137.89941406 2.79370117 C141.46922706 -0.25458057 144.16338509 -0.38884293 148.73828125 -0.359375 C152.32520929 0.21056866 153.86838894 2.20226049 156 5 C157.26372044 7.52744088 157.12022795 9.26380308 157.11352539 12.09228516 C157.11344986 13.15323395 157.11337433 14.21418274 157.11329651 15.30728149 C157.10813522 16.45626923 157.10297394 17.60525696 157.09765625 18.7890625 C157.09553383 20.54940323 157.09553383 20.54940323 157.09336853 22.3453064 C157.08775689 26.10522985 157.07520238 29.86509445 157.0625 33.625 C157.0574865 36.16926998 157.05292333 38.71354088 157.04882812 41.2578125 C157.03778368 47.50522853 157.02103418 53.75261006 157 60 C157.95276321 59.99111755 158.90552643 59.98223511 159.88716125 59.9730835 C168.9046634 59.89168696 177.92209015 59.83188636 186.93987751 59.79275131 C191.5750654 59.77195453 196.20995464 59.74378307 200.8449707 59.69824219 C205.32539456 59.65450013 209.80553274 59.63080354 214.28615379 59.62049103 C215.98804401 59.6131502 217.68992016 59.59881638 219.39168739 59.57707977 C234.15105837 59.39620711 245.19290266 61.43529984 256.12890625 72.0703125 C263.89695298 80.28183888 267.16992678 88.39796445 267.11352539 99.61425781 C267.11367142 100.37562042 267.11381744 101.13698303 267.1139679 101.92141724 C267.11327255 104.43201571 267.10549787 106.94253952 267.09765625 109.453125 C267.09579073 111.19618692 267.09436746 112.93924937 267.09336853 114.68231201 C267.08955394 119.26572116 267.07973267 123.84909851 267.06866455 128.43249512 C267.0584277 133.11124237 267.05386604 137.78999477 267.04882812 142.46875 C267.03810946 151.64584728 267.02104572 160.822921 267 170 C267.65066437 169.99111755 268.30132874 169.98223511 268.97171021 169.9730835 C275.75253502 169.88449166 282.53319504 169.82421627 289.31445312 169.78027344 C291.84414347 169.76017595 294.37378746 169.73289332 296.90332031 169.69824219 C300.54243417 169.64964444 304.180933 169.62701188 307.8203125 169.609375 C308.94865509 169.58872986 310.07699768 169.56808472 311.23953247 169.54681396 C317.44989998 169.54504495 321.32473771 169.73244677 326 174 C327.72869779 177.45739557 327.48966895 181.21975568 327 185 C325.20606332 187.87029869 324.01736724 189.49131638 321 191 C319.27393547 191.09061856 317.54435493 191.11754501 315.81591797 191.11352539 C314.73494843 191.11344986 313.65397888 191.11337433 312.54025269 191.11329651 C310.78396042 191.10555458 310.78396042 191.10555458 308.9921875 191.09765625 C307.79643097 191.0962413 306.60067444 191.09482635 305.36868286 191.09336853 C301.53743013 191.08775663 297.70623516 191.07520208 293.875 191.0625 C291.28255293 191.05748653 288.69010494 191.05292336 286.09765625 191.04882812 C279.7317305 191.03863286 273.36593015 191.01905967 267 191 C267 200.57 267 210.14 267 220 C270.60035156 219.96519531 274.20070313 219.93039063 277.91015625 219.89453125 C281.4084392 219.87111539 284.90671333 219.8529103 288.4050293 219.83520508 C290.83085049 219.82014591 293.25664458 219.79969438 295.68237305 219.77368164 C299.17503562 219.73717297 302.66733725 219.72024447 306.16015625 219.70703125 C307.23959 219.69154739 308.31902374 219.67606354 309.4311676 219.66011047 C315.391346 219.65878711 319.79251387 219.98708787 325 223 C327.10062755 226.15094133 327.34313286 227.2224366 327.4375 230.875 C327.47746094 231.71804687 327.51742187 232.56109375 327.55859375 233.4296875 C326.93974549 236.27725502 325.98048171 237.93349037 323.86528015 239.94396973 C319.58984735 242.3645104 314.24368781 241.59269536 309.48046875 241.48828125 C308.26676102 241.48120651 307.05305328 241.47413177 305.80256653 241.46684265 C301.93024788 241.43887889 298.05938083 241.37613091 294.1875 241.3125 C291.56056777 241.28741996 288.93361286 241.26460629 286.30664062 241.24414062 C279.87008612 241.19329896 273.43666561 241.09543656 267 241 C267 250.9 267 260.8 267 271 C270.91230469 270.94199219 274.82460938 270.88398438 278.85546875 270.82421875 C282.64491753 270.78522427 286.43434395 270.75486449 290.22387695 270.7253418 C292.85744227 270.70019843 295.49093782 270.66607916 298.12426758 270.62280273 C301.90984309 270.5621479 305.69449598 270.5337873 309.48046875 270.51171875 C311.2463459 270.47300911 311.2463459 270.47300911 313.04789734 270.43351746 C322.15472932 270.43039304 322.15472932 270.43039304 325.2409668 273.37426758 C327.68445767 277.02169913 327.70879387 279.34630338 327.4921875 283.62109375 C326.73082567 287.30100927 325.01122863 288.87845256 322 291 C318.92318203 292.02067666 316.0923459 292.12151571 312.86425781 292.11352539 C311.84350159 292.11344986 310.82274536 292.11337433 309.77105713 292.11329651 C308.67613953 292.10813522 307.58122192 292.10297394 306.453125 292.09765625 C305.3267865 292.0962413 304.200448 292.09482635 303.03997803 292.09336853 C299.44329165 292.08777199 295.84666756 292.0752201 292.25 292.0625 C289.81119882 292.05748455 287.37239666 292.05292172 284.93359375 292.04882812 C278.95568587 292.03865469 272.97791265 292.01907844 267 292 C267 301.57 267 311.14 267 321 C272.76017578 320.93039062 272.76017578 320.93039062 278.63671875 320.859375 C282.35667601 320.82817844 286.07661868 320.80389106 289.79663086 320.78027344 C292.38165817 320.76016028 294.96664 320.73286614 297.55151367 320.69824219 C301.26752955 320.64971346 304.98294378 320.62702765 308.69921875 320.609375 C309.85459641 320.58872986 311.00997406 320.56808472 312.20036316 320.54681396 C320.23121127 320.54456892 320.23121127 320.54456892 324.20629883 322.89941406 C327.25458057 326.46922706 327.38884293 329.16338509 327.359375 333.73828125 C326.78943134 337.32520929 324.79773951 338.86838894 322 341 C319.47255912 342.26372044 317.73619692 342.12022795 314.90771484 342.11352539 C313.31629166 342.11341209 313.31629166 342.11341209 311.69271851 342.11329651 C310.54373077 342.10813522 309.39474304 342.10297394 308.2109375 342.09765625 C307.03737701 342.0962413 305.86381653 342.09482635 304.6546936 342.09336853 C300.89477015 342.08775689 297.13490555 342.07520238 293.375 342.0625 C290.83073002 342.0574865 288.28645912 342.05292333 285.7421875 342.04882812 C279.49477147 342.03778368 273.24738994 342.02103418 267 342 C267.00888245 342.95276321 267.01776489 343.90552643 267.0269165 344.88716125 C267.10831304 353.9046634 267.16811364 362.92209015 267.20724869 371.93987751 C267.22804547 376.5750654 267.25621693 381.20995464 267.30175781 385.8449707 C267.34549987 390.32539456 267.36919646 394.80553274 267.37950897 399.28615379 C267.3868498 400.98804401 267.40118362 402.68992016 267.42292023 404.39168739 C267.60379289 419.15105837 265.56470016 430.19290266 254.9296875 441.12890625 C246.71816112 448.89695298 238.60203555 452.16992678 227.38574219 452.11352539 C226.62437958 452.11367142 225.86301697 452.11381744 225.07858276 452.1139679 C222.56798429 452.11327255 220.05746048 452.10549787 217.546875 452.09765625 C215.80381308 452.09579073 214.06075063 452.09436746 212.31768799 452.09336853 C207.73427884 452.08955394 203.15090149 452.07973267 198.56750488 452.06866455 C193.88875763 452.0584277 189.21000523 452.05386604 184.53125 452.04882812 C175.35415272 452.03810946 166.177079 452.02104572 157 452 C157.00888245 452.65066437 157.01776489 453.30132874 157.0269165 453.97171021 C157.11550834 460.75253502 157.17578373 467.53319504 157.21972656 474.31445312 C157.23982405 476.84414347 157.26710668 479.37378746 157.30175781 481.90332031 C157.35035556 485.54243417 157.37298812 489.180933 157.390625 492.8203125 C157.41127014 493.94865509 157.43191528 495.07699768 157.45318604 496.23953247 C157.45495505 502.44989998 157.26755323 506.32473771 153 511 C149.54260443 512.72869779 145.78024432 512.48966895 142 512 C139.12970131 510.20606332 137.50868362 509.01736724 136 506 C135.90938144 504.27393547 135.88245499 502.54435493 135.88647461 500.81591797 C135.88655014 499.73494843 135.88662567 498.65397888 135.88670349 497.54025269 C135.89186478 496.36939117 135.89702606 495.19852966 135.90234375 493.9921875 C135.90446617 492.1985527 135.90446617 492.1985527 135.90663147 490.36868286 C135.91224337 486.53743013 135.92479792 482.70623516 135.9375 478.875 C135.94251347 476.28255293 135.94707664 473.69010494 135.95117188 471.09765625 C135.96136714 464.7317305 135.98094033 458.36593015 136 452 C126.43 452 116.86 452 107 452 C107.03480469 455.60035156 107.06960938 459.20070313 107.10546875 462.91015625 C107.12888461 466.4084392 107.1470897 469.90671333 107.16479492 473.4050293 C107.17985409 475.83085049 107.20030562 478.25664458 107.22631836 480.68237305 C107.26282703 484.17503562 107.27975553 487.66733725 107.29296875 491.16015625 C107.30845261 492.23959 107.32393646 493.31902374 107.33988953 494.4311676 C107.34121289 500.391346 107.01291213 504.79251387 104 510 C100.87065289 512.08623141 99.75645713 512.36754564 96.125 512.5 C95.28195312 512.5515625 94.43890625 512.603125 93.5703125 512.65625 C90.49915384 511.87212439 89.01148046 510.54267688 87.05603027 508.07769775 C84.78582706 503.61116281 85.40198441 498.49252376 85.51171875 493.6015625 C85.51879349 492.41146576 85.52586823 491.22136902 85.53315735 489.99520874 C85.56108357 486.20449234 85.62382427 482.4152679 85.6875 478.625 C85.71258491 476.05080262 85.73539773 473.47658203 85.75585938 470.90234375 C85.80664769 464.6005292 85.90451623 458.30192896 86 452 C76.1 452 66.2 452 56 452 C56.08701172 457.86845703 56.08701172 457.86845703 56.17578125 463.85546875 C56.21477573 467.64491753 56.24513551 471.43434395 56.2746582 475.22387695 C56.29980157 477.85744227 56.33392084 480.49093782 56.37719727 483.12426758 C56.4378521 486.90984309 56.4662127 490.69449598 56.48828125 494.48046875 C56.51408768 495.65772018 56.5398941 496.83497162 56.56648254 498.04789734 C56.56960696 507.15472932 56.56960696 507.15472932 53.62573242 510.2409668 C49.97830087 512.68445767 47.65369662 512.70879387 43.37890625 512.4921875 C39.69899073 511.73082567 38.12154744 510.01122863 36 507 C34.97932334 503.92318203 34.87848429 501.0923459 34.88647461 497.86425781 C34.88655014 496.84350159 34.88662567 495.82274536 34.88670349 494.77105713 C34.89186478 493.67613953 34.89702606 492.58122192 34.90234375 491.453125 C34.90446617 489.76361725 34.90446617 489.76361725 34.90663147 488.03997803 C34.91222801 484.44329165 34.9247799 480.84666756 34.9375 477.25 C34.94251545 474.81119882 34.94707828 472.37239666 34.95117188 469.93359375 C34.96134531 463.95568587 34.98092156 457.97791265 35 452 C25.43 452 15.86 452 6 452 C6.04640625 455.84011719 6.0928125 459.68023437 6.140625 463.63671875 C6.17182156 467.35667601 6.19610894 471.07661868 6.21972656 474.79663086 C6.23983972 477.38165817 6.26713386 479.96664 6.30175781 482.55151367 C6.35028654 486.26752955 6.37297235 489.98294378 6.390625 493.69921875 C6.41127014 494.85459641 6.43191528 496.00997406 6.45318604 497.20036316 C6.45543108 505.23121127 6.45543108 505.23121127 4.10058594 509.20629883 C0.53077294 512.25458057 -2.16338509 512.38884293 -6.73828125 512.359375 C-10.32520929 511.78943134 -11.86838894 509.79773951 -14 507 C-15.26372044 504.47255912 -15.12022795 502.73619692 -15.11352539 499.90771484 C-15.11344986 498.84676605 -15.11337433 497.78581726 -15.11329651 496.69271851 C-15.10813522 495.54373077 -15.10297394 494.39474304 -15.09765625 493.2109375 C-15.09553383 491.45059677 -15.09553383 491.45059677 -15.09336853 489.6546936 C-15.08775689 485.89477015 -15.07520238 482.13490555 -15.0625 478.375 C-15.0574865 475.83073002 -15.05292333 473.28645912 -15.04882812 470.7421875 C-15.03778368 464.49477147 -15.02103418 458.24738994 -15 452 C-15.95276321 452.00888245 -16.90552643 452.01776489 -17.88716125 452.0269165 C-26.9046634 452.10831304 -35.92209015 452.16811364 -44.93987751 452.20724869 C-49.5750654 452.22804547 -54.20995464 452.25621693 -58.8449707 452.30175781 C-63.32539456 452.34549987 -67.80553274 452.36919646 -72.28615379 452.37950897 C-73.98804401 452.3868498 -75.68992016 452.40118362 -77.39168739 452.42292023 C-92.15105837 452.60379289 -103.19290266 450.56470016 -114.12890625 439.9296875 C-121.89695298 431.71816112 -125.16992678 423.60203555 -125.11352539 412.38574219 C-125.11367142 411.62437958 -125.11381744 410.86301697 -125.1139679 410.07858276 C-125.11327255 407.56798429 -125.10549787 405.05746048 -125.09765625 402.546875 C-125.09579073 400.80381308 -125.09436746 399.06075063 -125.09336853 397.31768799 C-125.08955394 392.73427884 -125.07973267 388.15090149 -125.06866455 383.56750488 C-125.0584277 378.88875763 -125.05386604 374.21000523 -125.04882812 369.53125 C-125.03810946 360.35415272 -125.02104572 351.177079 -125 342 C-125.65066437 342.00888245 -126.30132874 342.01776489 -126.97171021 342.0269165 C-133.75253502 342.11550834 -140.53319504 342.17578373 -147.31445312 342.21972656 C-149.84414347 342.23982405 -152.37378746 342.26710668 -154.90332031 342.30175781 C-158.54243417 342.35035556 -162.180933 342.37298812 -165.8203125 342.390625 C-166.94865509 342.41127014 -168.07699768 342.43191528 -169.23953247 342.45318604 C-175.44989998 342.45495505 -179.32473771 342.26755323 -184 338 C-185.72869779 334.54260443 -185.48966895 330.78024432 -185 327 C-183.20606332 324.12970131 -182.01736724 322.50868362 -179 321 C-177.27393547 320.90938144 -175.54435493 320.88245499 -173.81591797 320.88647461 C-172.73494843 320.88655014 -171.65397888 320.88662567 -170.54025269 320.88670349 C-168.78396042 320.89444542 -168.78396042 320.89444542 -166.9921875 320.90234375 C-165.79643097 320.9037587 -164.60067444 320.90517365 -163.36868286 320.90663147 C-159.53743013 320.91224337 -155.70623516 320.92479792 -151.875 320.9375 C-149.28255293 320.94251347 -146.69010494 320.94707664 -144.09765625 320.95117188 C-137.7317305 320.96136714 -131.36593015 320.98094033 -125 321 C-125 311.43 -125 301.86 -125 292 C-128.60035156 292.03480469 -132.20070313 292.06960938 -135.91015625 292.10546875 C-139.4084392 292.12888461 -142.90671333 292.1470897 -146.4050293 292.16479492 C-148.83085049 292.17985409 -151.25664458 292.20030562 -153.68237305 292.22631836 C-157.17503562 292.26282703 -160.66733725 292.27975553 -164.16015625 292.29296875 C-165.23959 292.30845261 -166.31902374 292.32393646 -167.4311676 292.33988953 C-173.391346 292.34121289 -177.79251387 292.01291213 -183 289 C-185.10062755 285.84905867 -185.34313286 284.7775634 -185.4375 281.125 C-185.47746094 280.28195312 -185.51742187 279.43890625 -185.55859375 278.5703125 C-184.93974549 275.72274498 -183.98048171 274.06650963 -181.86528015 272.05603027 C-177.58984735 269.6354896 -172.24368781 270.40730464 -167.48046875 270.51171875 C-166.26676102 270.51879349 -165.05305328 270.52586823 -163.80256653 270.53315735 C-159.93024788 270.56112111 -156.05938083 270.62386909 -152.1875 270.6875 C-149.56056777 270.71258004 -146.93361286 270.73539371 -144.30664062 270.75585938 C-137.87008612 270.80670104 -131.43666561 270.90456344 -125 271 C-125 261.1 -125 251.2 -125 241 C-128.91230469 241.05800781 -132.82460937 241.11601562 -136.85546875 241.17578125 C-140.64491753 241.21477573 -144.43434395 241.24513551 -148.22387695 241.2746582 C-150.85744227 241.29980157 -153.49093782 241.33392084 -156.12426758 241.37719727 C-159.90984309 241.4378521 -163.69449598 241.4662127 -167.48046875 241.48828125 C-169.2463459 241.52699089 -169.2463459 241.52699089 -171.04789734 241.56648254 C-180.15472932 241.56960696 -180.15472932 241.56960696 -183.2409668 238.62573242 C-185.68445767 234.97830087 -185.70879387 232.65369662 -185.4921875 228.37890625 C-184.73082567 224.69899073 -183.01122863 223.12154744 -180 221 C-176.92318203 219.97932334 -174.0923459 219.87848429 -170.86425781 219.88647461 C-169.84350159 219.88655014 -168.82274536 219.88662567 -167.77105713 219.88670349 C-166.67613953 219.89186478 -165.58122192 219.89702606 -164.453125 219.90234375 C-162.76361725 219.90446617 -162.76361725 219.90446617 -161.03997803 219.90663147 C-157.44329165 219.91222801 -153.84666756 219.9247799 -150.25 219.9375 C-147.81119882 219.94251545 -145.37239666 219.94707828 -142.93359375 219.95117188 C-136.95568587 219.96134531 -130.97791265 219.98092156 -125 220 C-125 210.43 -125 200.86 -125 191 C-128.84011719 191.04640625 -132.68023437 191.0928125 -136.63671875 191.140625 C-140.35667601 191.17182156 -144.07661868 191.19610894 -147.79663086 191.21972656 C-150.38165817 191.23983972 -152.96664 191.26713386 -155.55151367 191.30175781 C-159.26752955 191.35028654 -162.98294378 191.37297235 -166.69921875 191.390625 C-167.85459641 191.41127014 -169.00997406 191.43191528 -170.20036316 191.45318604 C-178.23121127 191.45543108 -178.23121127 191.45543108 -182.20629883 189.10058594 C-185.25458057 185.53077294 -185.38884293 182.83661491 -185.359375 178.26171875 C-184.78943134 174.67479071 -182.79773951 173.13161106 -180 171 C-177.47255912 169.73627956 -175.73619692 169.87977205 -172.90771484 169.88647461 C-171.31629166 169.88658791 -171.31629166 169.88658791 -169.69271851 169.88670349 C-167.96923691 169.89444542 -167.96923691 169.89444542 -166.2109375 169.90234375 C-164.45059677 169.90446617 -164.45059677 169.90446617 -162.6546936 169.90663147 C-158.89477015 169.91224311 -155.13490555 169.92479762 -151.375 169.9375 C-148.83073002 169.9425135 -146.28645912 169.94707667 -143.7421875 169.95117188 C-137.49477147 169.96221632 -131.24738994 169.97896582 -125 170 C-125.00888245 169.04723679 -125.01776489 168.09447357 -125.0269165 167.11283875 C-125.10831304 158.0953366 -125.16811364 149.07790985 -125.20724869 140.06012249 C-125.22804547 135.4249346 -125.25621693 130.79004536 -125.30175781 126.1550293 C-125.34549987 121.67460544 -125.36919646 117.19446726 -125.37950897 112.71384621 C-125.3868498 111.01195599 -125.40118362 109.31007984 -125.42292023 107.60831261 C-125.60379289 92.84894163 -123.56470016 81.80709734 -112.9296875 70.87109375 C-104.71816112 63.10304702 -96.60203555 59.83007322 -85.38574219 59.88647461 C-84.62437958 59.88632858 -83.86301697 59.88618256 -83.07858276 59.8860321 C-80.56798429 59.88672745 -78.05746048 59.89450213 -75.546875 59.90234375 C-73.80381308 59.90420927 -72.06075063 59.90563254 -70.31768799 59.90663147 C-65.73427884 59.91044606 -61.15090149 59.92026733 -56.56750488 59.93133545 C-51.88875763 59.9415723 -47.21000523 59.94613396 -42.53125 59.95117188 C-33.35415272 59.96189054 -24.177079 59.97895428 -15 60 C-15.00888245 59.34933563 -15.01776489 58.69867126 -15.0269165 58.02828979 C-15.11550834 51.24746498 -15.17578373 44.46680496 -15.21972656 37.68554688 C-15.23982405 35.15585653 -15.26710668 32.62621254 -15.30175781 30.09667969 C-15.35035556 26.45756583 -15.37298812 22.819067 -15.390625 19.1796875 C-15.42159271 17.48717361 -15.42159271 17.48717361 -15.45318604 15.76046753 C-15.45495505 9.55010002 -15.26755323 5.67526229 -11 1 C-7.54260443 -0.72869779 -3.78024432 -0.48966895 0 0 Z M-100.375 88.5625 C-100.85710937 89.14128906 -101.33921875 89.72007813 -101.8359375 90.31640625 C-104.10156402 93.59320166 -104.12714077 96.52572997 -104.13422108 100.37838364 C-104.13867892 101.50169327 -104.14313676 102.62500289 -104.14772969 103.78235221 C-104.14754533 105.0217242 -104.14736097 106.26109619 -104.14717102 107.5380249 C-104.15084771 108.85055308 -104.1545244 110.16308125 -104.1583125 111.51538301 C-104.16833734 115.16639895 -104.17205006 118.81739846 -104.17470181 122.46842623 C-104.17860339 126.40311158 -104.18818179 130.3377839 -104.19691467 134.27246094 C-104.21668252 143.77818237 -104.22674539 153.28390488 -104.23564246 162.78964174 C-104.24002457 167.26465129 -104.24539155 171.73965966 -104.25063133 176.21466827 C-104.26764342 191.08793263 -104.28213824 205.96119625 -104.28938007 220.83446884 C-104.29129 224.69465892 -104.29321033 228.554849 -104.29516602 232.41503906 C-104.29564976 233.37448434 -104.2961335 234.33392962 -104.2966319 235.322449 C-104.30493462 250.86956226 -104.33027571 266.41659865 -104.36274669 281.96367833 C-104.39580258 297.92071377 -104.41382747 313.87771011 -104.41702431 329.83477998 C-104.4191907 338.79606789 -104.42795824 347.75724366 -104.45348549 356.71849823 C-104.47517235 364.34927041 -104.48325284 371.97990322 -104.47351871 379.61070272 C-104.46896822 383.50426207 -104.47090343 387.39753373 -104.49028015 391.29105377 C-104.51110627 395.51225265 -104.5009453 399.73281112 -104.48774719 403.95404053 C-104.49871644 405.18448963 -104.50968568 406.41493873 -104.52098733 407.68267417 C-104.46346684 415.28250345 -103.68717221 419.97176436 -98.4375 425.70703125 C-93.62589348 429.40726126 -90.61654366 431.24779214 -84.50136185 431.26006222 C-83.37667787 431.26712781 -82.25199389 431.2741934 -81.09322858 431.2814731 C-79.85745155 431.27905802 -78.62167452 431.27664293 -77.34844971 431.27415466 C-76.03577267 431.27939134 -74.72309564 431.28462802 -73.37064052 431.29002339 C-69.72379558 431.30421855 -66.07703581 431.30586639 -62.4301672 431.30542648 C-58.49819611 431.30707336 -54.56626025 431.3201375 -50.63430786 431.33161926 C-42.03510878 431.35447871 -33.43593437 431.36239093 -24.83670902 431.36744571 C-19.46759994 431.37070171 -14.09849803 431.37722361 -8.72939301 431.3844471 C6.13533167 431.40401446 21.00004967 431.4204178 35.86478806 431.42332363 C36.8162059 431.4235112 37.76762374 431.42369877 38.74787243 431.42389202 C40.67664353 431.42425828 42.60541463 431.42462197 44.53418574 431.42498314 C45.9703595 431.42525735 45.9703595 431.42525735 47.43554688 431.42553711 C48.39416434 431.42571766 49.35278181 431.42589821 50.34044829 431.42608423 C65.87391478 431.42962596 81.40724264 431.45664764 96.94066104 431.494035 C112.88756874 431.5321105 128.83440765 431.55148105 144.78136182 431.55178314 C153.73542165 431.55236789 162.68931614 431.5608712 171.64333344 431.58978081 C179.26785945 431.61428462 186.89215981 431.62158442 194.51671454 431.60653328 C198.40641039 431.59936013 202.29566057 431.6002387 206.18530655 431.62294388 C210.40403758 431.64733391 214.62175303 431.63290962 218.84051514 431.61473083 C220.68079635 431.63453079 220.68079635 431.63453079 222.55825496 431.65473074 C229.66070871 431.58472303 234.54996008 430.74367079 240 426 C244.26909334 421.39387297 246.24743109 417.79648327 246.26006222 411.50136185 C246.26712781 410.37667787 246.2741934 409.25199389 246.2814731 408.09322858 C246.27905802 406.85745155 246.27664293 405.62167452 246.27415466 404.34844971 C246.27939134 403.03577267 246.28462802 401.72309564 246.29002339 400.37064052 C246.30421855 396.72379558 246.30586639 393.07703581 246.30542648 389.4301672 C246.30707336 385.49819611 246.3201375 381.56626025 246.33161926 377.63430786 C246.35447871 369.03510878 246.36239093 360.43593437 246.36744571 351.83670902 C246.37070171 346.46759994 246.37722361 341.09849803 246.3844471 335.72939301 C246.40401446 320.86466833 246.4204178 305.99995033 246.42332363 291.13521194 C246.42360499 289.70808518 246.42360499 289.70808518 246.42389202 288.25212757 C246.42425828 286.32335647 246.42462197 284.39458537 246.42498314 282.46581426 C246.42516595 281.50836509 246.42534876 280.55091591 246.42553711 279.56445312 C246.42571766 278.60583566 246.42589821 277.64721819 246.42608423 276.65955171 C246.42962596 261.12608522 246.45664764 245.59275736 246.494035 230.05933896 C246.5321105 214.11243126 246.55148105 198.16559235 246.55178314 182.21863818 C246.55236789 173.26457835 246.5608712 164.31068386 246.58978081 155.35666656 C246.61428462 147.73214055 246.62158442 140.10784019 246.60653328 132.48328546 C246.59936013 128.59358961 246.6002387 124.70433943 246.62294388 120.81469345 C246.64733391 116.59596242 246.63290962 112.37824697 246.61473083 108.15948486 C246.63453079 106.31920365 246.63453079 106.31920365 246.65473074 104.44174504 C246.57546844 96.40039046 245.1932917 91.19612325 239.45113176 85.45008588 C235.2347081 81.7380549 232.10427512 80.87585482 226.62161636 80.86577892 C225.49830673 80.86132108 224.37499711 80.85686324 223.21764779 80.85227031 C221.9782758 80.85245467 220.73890381 80.85263903 219.4619751 80.85282898 C218.14944692 80.84915229 216.83691875 80.8454756 215.48461699 80.8416875 C211.83360105 80.83166266 208.18260154 80.82794994 204.53157377 80.82529819 C200.59688842 80.82139661 196.6622161 80.81181821 192.72753906 80.80308533 C183.22181763 80.78331748 173.71609512 80.77325461 164.21035826 80.76435754 C159.73534871 80.75997543 155.26034034 80.75460845 150.78533173 80.74936867 C135.91206737 80.73235658 121.03880375 80.71786176 106.16553116 80.71061993 C102.30534108 80.70871 98.445151 80.70678967 94.58496094 80.70483398 C93.62551566 80.70435024 92.66607038 80.7038665 91.677551 80.7033681 C76.13043774 80.69506538 60.58340135 80.66972429 45.03632167 80.63725331 C29.07928623 80.60419742 13.12228989 80.58617253 -2.83477998 80.58297569 C-11.79606789 80.5808093 -20.75724366 80.57204176 -29.71849823 80.54651451 C-37.34927041 80.52482765 -44.97990322 80.51674716 -52.61070272 80.52648129 C-56.50426207 80.53103178 -60.39753373 80.52909657 -64.29105377 80.50971985 C-68.51225265 80.48889373 -72.73281112 80.4990547 -76.95404053 80.51225281 C-78.79971418 80.49579894 -78.79971418 80.49579894 -80.68267417 80.47901267 C-89.08528528 80.54260914 -94.8460864 81.73536082 -100.375 88.5625 Z " fill="#000000" transform="translate(185,0)"/>
<path d="M0 0 C0.97326467 -0.00583219 1.94652934 -0.01166439 2.94928688 -0.01767331 C4.54921937 -0.01200433 4.54921937 -0.01200433 6.18147373 -0.00622082 C7.31659116 -0.01004636 8.45170859 -0.01387191 9.62122351 -0.01781338 C13.43900672 -0.02816293 17.25664008 -0.02414748 21.07443333 -0.02018261 C23.80579662 -0.02343347 26.53715148 -0.02964578 29.26850986 -0.03567028 C35.9258721 -0.04842964 42.58319402 -0.05020944 49.24056643 -0.04787002 C54.65090235 -0.04608812 60.06122602 -0.04783375 65.47156048 -0.05209446 C66.24112533 -0.05268965 67.01069018 -0.05328484 67.80357518 -0.05389806 C69.36686639 -0.05510979 70.93015759 -0.05632393 72.4934488 -0.05754044 C87.15903887 -0.0684207 101.82460595 -0.06625116 116.49019731 -0.06015559 C129.91110308 -0.05498572 143.33193628 -0.06624287 156.7528277 -0.08525381 C170.52896653 -0.10461859 184.30507101 -0.11289062 198.08122355 -0.10913056 C205.81727013 -0.10721648 213.55325493 -0.10972617 221.28929043 -0.1238451 C227.8748578 -0.13574255 234.46032538 -0.13718224 241.04589408 -0.12505493 C244.40656537 -0.11915466 247.76690387 -0.11971708 251.12758732 -0.13005733 C254.76917432 -0.14045611 258.4102663 -0.132479 262.05183506 -0.11974621 C263.116226 -0.12712049 264.18061694 -0.13449478 265.27726215 -0.14209253 C274.46027773 -0.07427854 274.46027773 -0.07427854 278.18014622 3.25447559 C280.0314651 6.28223291 280.43098583 8.54954489 280.43462181 12.07432938 C280.440454 13.04759405 280.4462862 14.02085872 280.45229512 15.02361625 C280.4485158 16.09023792 280.44473648 17.15685958 280.44084263 18.25580311 C280.44466818 19.39092053 280.44849372 20.52603796 280.4524352 21.69555289 C280.46278474 25.51333609 280.45876929 29.33096945 280.45480442 33.1487627 C280.45805528 35.88012599 280.4642676 38.61148085 280.47029209 41.34283924 C280.48305145 48.00020147 280.48483125 54.6575234 280.48249183 61.3148958 C280.48070993 66.72523173 280.48245556 72.1355554 280.48671627 77.54588985 C280.48731146 78.3154547 280.48790665 79.08501956 280.48851987 79.87790455 C280.4897316 81.44119576 280.49094574 83.00448697 280.49216225 84.56777818 C280.50304251 99.23336824 280.50087297 113.89893532 280.4947774 128.56452668 C280.48960753 141.98543245 280.50086468 155.40626566 280.51987562 168.82715707 C280.5392404 182.60329591 280.54751244 196.37940039 280.54375237 210.15555292 C280.54183829 217.8915995 280.54434798 225.62758431 280.55846691 233.3636198 C280.57036436 239.94918718 280.57180405 246.53465475 280.55967674 253.12022346 C280.55377647 256.48089475 280.55433889 259.84123325 280.56467915 263.20191669 C280.57507792 266.8435037 280.56710081 270.48459568 280.55436802 274.12616444 C280.5617423 275.19055538 280.56911659 276.25494632 280.57671434 277.35159153 C280.50890035 286.5346071 280.50890035 286.5346071 277.18014622 290.25447559 C274.1523889 292.10579447 271.88507692 292.5053152 268.36029243 292.50895119 C267.38702776 292.51478338 266.4137631 292.52061557 265.41100556 292.5266245 C263.81107306 292.52095552 263.81107306 292.52095552 262.1788187 292.515172 C261.04370128 292.51899755 259.90858385 292.5228231 258.73906893 292.52676457 C254.92128572 292.53711411 251.10365236 292.53309867 247.28585911 292.5291338 C244.55449582 292.53238466 241.82314096 292.53859697 239.09178257 292.54462147 C232.43442034 292.55738083 225.77709841 292.55916063 219.11972601 292.5568212 C213.70939009 292.5550393 208.29906641 292.55678493 202.88873196 292.56104565 C201.73438468 292.56193843 201.73438468 292.56193843 200.55671726 292.56284925 C198.99342605 292.56406098 197.43013484 292.56527511 195.86684363 292.56649163 C181.20125357 292.57737188 166.53568649 292.57520235 151.87009513 292.56910678 C138.44918936 292.5639369 125.02835615 292.57519405 111.60746474 292.594205 C97.8313259 292.61356978 84.05522142 292.62184181 70.27906889 292.61808175 C62.54302231 292.61616767 54.8070375 292.61867736 47.07100201 292.63279629 C40.48543463 292.64469373 33.89996706 292.64613343 27.31439836 292.63400612 C23.95372706 292.62810585 20.59338857 292.62866827 17.23270512 292.63900852 C13.59111812 292.6494073 9.95002613 292.64143018 6.30845737 292.6286974 C4.71187096 292.63975882 4.71187096 292.63975882 3.08303028 292.65104371 C-6.09998529 292.58322973 -6.09998529 292.58322973 -9.81985378 289.25447559 C-11.67117266 286.22671827 -12.07069339 283.9594063 -12.07432938 280.43462181 C-12.08016157 279.46135714 -12.08599376 278.48809247 -12.09200269 277.48533493 C-12.08822337 276.41871327 -12.08444404 275.35209161 -12.08055019 274.25314808 C-12.08437574 273.11803065 -12.08820129 271.98291323 -12.09214276 270.8133983 C-12.1024923 266.99561509 -12.09847686 263.17798173 -12.09451199 259.36018848 C-12.09776284 256.62882519 -12.10397516 253.89747033 -12.10999966 251.16611195 C-12.12275902 244.50874971 -12.12453882 237.85142779 -12.12219939 231.19405539 C-12.12041749 225.78371946 -12.12216312 220.37339579 -12.12642384 214.96306133 C-12.12701902 214.19349648 -12.12761421 213.42393163 -12.12822744 212.63104663 C-12.12943917 211.06775542 -12.1306533 209.50446422 -12.13186982 207.94117301 C-12.14275007 193.27558295 -12.14058054 178.61001587 -12.13448497 163.9444245 C-12.12931509 150.52351873 -12.14057224 137.10268553 -12.15958319 123.68179411 C-12.17894797 109.90565528 -12.18722 96.1295508 -12.18345994 82.35339826 C-12.18154586 74.61735168 -12.18405555 66.88136688 -12.19817448 59.14533138 C-12.21007192 52.55976401 -12.21151161 45.97429644 -12.19938431 39.38872773 C-12.19348403 36.02805644 -12.19404645 32.66771794 -12.20438671 29.30703449 C-12.21478549 25.66544749 -12.20680837 22.02435551 -12.19407558 18.38278675 C-12.20144987 17.31839581 -12.20882415 16.25400487 -12.2164219 15.15735966 C-12.14860792 5.97434409 -12.14860792 5.97434409 -8.81985378 2.25447559 C-5.79209646 0.40315671 -3.52478449 0.00363598 0 0 Z M9.18014622 21.25447559 C9.18014622 103.75447559 9.18014622 186.25447559 9.18014622 271.25447559 C47.13014622 271.25447559 85.08014622 271.25447559 124.18014622 271.25447559 C124.51014622 253.43447559 124.84014622 235.61447559 125.18014622 217.25447559 C130.80514622 211.62947559 130.80514622 211.62947559 135.70480442 211.59505177 C136.78554737 211.57540867 137.86629032 211.55576557 138.97978306 211.53552723 C140.71284954 211.5414262 140.71284954 211.5414262 142.48092747 211.54744434 C143.67243916 211.53232304 144.86395084 211.51720173 146.09156895 211.5016222 C149.8921196 211.45868138 153.69187694 211.44990037 157.49264622 211.44197559 C160.07144344 211.41883648 162.65022174 211.39347239 165.22897434 211.36580372 C171.54646568 211.29870452 177.86173518 211.27780642 184.18014622 211.25447559 C184.18014622 197.72447559 184.18014622 184.19447559 184.18014622 170.25447559 C179.89014622 167.94447559 175.60014622 165.63447559 171.18014622 163.25447559 C168.21427484 160.10608906 166.27123758 157.86310183 164.18014622 154.25447559 C163.74959934 153.51713184 163.31905247 152.77978809 162.87545872 152.02010059 C158.92273624 143.8965744 158.83705235 133.98903369 160.87545872 125.28572559 C164.81024433 114.5725278 171.73806885 107.72744503 181.99264622 102.94197559 C193.37582877 100.48677936 203.93078842 100.67887181 214.05514622 107.00447559 C221.83964014 112.73375051 226.10161475 119.49924833 228.93014622 128.69197559 C230.11421579 140.82868867 228.02146645 150.66450414 220.18014622 160.25447559 C216.81770799 163.79845391 213.41706367 166.18072057 209.04879856 168.34114552 C208.32526188 168.69988255 207.6017252 169.05861958 206.85626316 169.42822742 C206.30314457 169.70088932 205.75002598 169.97355122 205.18014622 170.25447559 C205.17427998 170.91988865 205.16841373 171.5853017 205.16236973 172.27087879 C205.09842525 179.19790136 205.0140023 186.1244598 204.91769505 193.05110645 C204.88444511 195.63600514 204.85641344 198.22097643 204.83371067 200.80598927 C204.80016695 204.52220569 204.74784893 208.2377566 204.69186497 211.95369434 C204.68547504 213.109072 204.67908512 214.26444965 204.67250156 215.45483875 C204.64281033 217.07595318 204.64281033 217.07595318 204.61251926 218.72981739 C204.59586468 220.1521191 204.59586468 220.1521191 204.57887363 221.60315418 C204.09554227 224.81704601 203.13526451 226.66761499 201.18014622 229.25447559 C198.13855801 231.37381999 195.51391998 231.52113597 191.86081028 231.57332325 C190.26961369 231.60312778 190.26961369 231.60312778 188.64627171 231.63353443 C186.93827396 231.65086124 186.93827396 231.65086124 185.19577122 231.66853809 C184.02504063 231.68790424 182.85431004 231.70727039 181.64810276 231.7272234 C177.90885802 231.78700267 174.16958248 231.8333986 170.43014622 231.87947559 C167.89497654 231.91765683 165.35981982 231.95670865 162.82467747 231.99666309 C156.6099011 232.09434131 150.39526272 232.17392497 144.18014622 232.25447559 C144.18014622 245.12447559 144.18014622 257.99447559 144.18014622 271.25447559 C182.13014622 271.25447559 220.08014622 271.25447559 259.18014622 271.25447559 C259.18014622 188.75447559 259.18014622 106.25447559 259.18014622 21.25447559 C221.23014622 21.25447559 183.28014622 21.25447559 144.18014622 21.25447559 C143.85014622 39.07447559 143.52014622 56.89447559 143.18014622 75.25447559 C137.55514622 80.87947559 137.55514622 80.87947559 132.65548801 80.91389942 C131.57474506 80.93354252 130.49400211 80.95318562 129.38050938 80.97342396 C127.64744289 80.96752499 127.64744289 80.96752499 125.87936497 80.96150684 C124.68785328 80.97662815 123.49634159 80.99174946 122.26872349 81.00732899 C118.46817284 81.05026981 114.66841549 81.05905082 110.86764622 81.06697559 C108.28884899 81.0901147 105.7100707 81.1154788 103.13131809 81.14314747 C96.81382676 81.21024667 90.49855726 81.23114477 84.18014622 81.25447559 C84.18014622 94.78447559 84.18014622 108.31447559 84.18014622 122.25447559 C87.48014622 123.90447559 90.78014622 125.55447559 94.18014622 127.25447559 C101.45488277 132.15093289 105.92397557 139.86110682 108.18014622 148.25447559 C109.27937812 160.47384421 107.78999215 170.62880751 99.94967747 180.43416309 C92.77822216 187.81142175 84.47060449 190.60423117 74.40280247 191.27791309 C64.18871343 191.20362881 55.83599369 187.53073599 48.43405247 180.62556934 C41.41990484 173.08667251 38.81919952 164.04478308 38.96920872 153.93416309 C39.74564069 144.0706014 44.27106259 135.57747643 51.55514622 128.94197559 C53.94948931 126.89757495 56.5039573 125.55633679 59.31149387 124.16780567 C60.03503056 123.80906864 60.75856724 123.45033161 61.50402927 123.08072376 C62.05714787 122.80806187 62.61026646 122.53539997 63.18014622 122.25447559 C63.18379185 121.59128315 63.18743748 120.92809071 63.19119358 120.24480152 C63.23304769 113.33377173 63.30241446 106.42340424 63.38766575 99.51277637 C63.41586781 96.9347188 63.43708608 94.35657488 63.45114231 91.77840137 C63.4725813 88.06945584 63.51924017 84.36154766 63.57077122 80.65291309 C63.57199986 79.50269672 63.57322849 78.35248035 63.57449436 77.16740894 C63.68744016 70.97748309 63.84460243 66.86874698 68.18014622 62.25447559 C71.17489336 61.25622655 73.25359956 61.10123528 76.38595676 61.04915333 C77.97726665 61.0192355 77.97726665 61.0192355 79.60072422 60.98871326 C80.74455067 60.97200077 81.88837711 60.95528828 83.06686497 60.93806934 C84.82508327 60.9068977 84.82508327 60.9068977 86.61882114 60.87509632 C90.36836908 60.80963742 94.11798785 60.75073263 97.86764622 60.69197559 C100.40736713 60.64878691 102.94708084 60.60517251 105.48678684 60.56111622 C111.71783504 60.45315755 117.94893591 60.35405631 124.18014622 60.25447559 C124.18014622 47.38447559 124.18014622 34.51447559 124.18014622 21.25447559 C86.23014622 21.25447559 48.28014622 21.25447559 9.18014622 21.25447559 Z M181.68014622 127.87947559 C179.64387635 132.4610828 179.38542865 136.31759372 180.18014622 141.25447559 C182.3686193 145.71247632 184.6529732 148.20646875 189.18014622 150.25447559 C193.76609526 151.68121529 196.96914828 151.16322088 201.28170872 149.32088184 C205.17430031 147.13430262 207.56481758 144.38710527 208.80905247 140.07478809 C209.625137 134.97211215 209.23548533 131.59108594 206.18014622 127.25447559 C202.52840483 123.43288577 199.50339966 121.40029095 194.26608372 121.05916309 C188.96528298 121.55549275 185.27496614 124.10491468 181.68014622 127.87947559 Z M62.24264622 146.87947559 C59.68189857 151.06978993 58.89009415 154.36753767 59.18014622 159.25447559 C60.86912017 164.42074887 63.70202544 167.24035584 68.18014622 170.25447559 C72.39843313 171.48161361 74.6019615 171.43391223 78.80514622 170.12947559 C82.82995637 167.89346995 86.0882699 165.43822823 88.18014622 161.25447559 C88.7265866 156.27380586 88.72219297 152.3586449 86.49264622 147.81697559 C83.37464461 144.36189273 80.7922988 142.75603417 76.36764622 141.37947559 C70.51034218 141.1497774 66.57704782 143.00618055 62.24264622 146.87947559 Z " fill="#000000" transform="translate(121.81985378265381,109.7455244064331)"/>
</svg>
